<?xml version="1.0" encoding="utf-8"?>
<!-- Generator: Adobe Illustrator 21.1.0, SVG Export Plug-In . SVG Version: 6.00 Build 0)  -->
<svg version="1.1" id="Layer_1" xmlns="http://www.w3.org/2000/svg" xmlns:xlink="http://www.w3.org/1999/xlink" x="0px" y="0px"
	 width="64px" height="64px" viewBox="0 0 64 64" enable-background="new 0 0 64 64" xml:space="preserve">
<title>play2</title>
<path fill="#FFFFFF" d="M32,0C14.3,0,0,14.3,0,32s14.3,32,32,32s32-14.3,32-32S49.7,0,32,0z M32,58C17.6,58,6,46.4,6,32S17.6,6,32,6
	s26,11.6,26,26S46.4,58,32,58z"/>
<polygon fill-rule="evenodd" clip-rule="evenodd" fill="#FFFFFF" points="22.1,38.4 32.4,48 32.4,16 22.1,25.6 "/>
<polygon fill-rule="evenodd" clip-rule="evenodd" fill="#FFFFFF" points="14.1,38 17.5,38 20.1,38 20.1,26 14.1,26 "/>
<path fill-rule="evenodd" clip-rule="evenodd" fill="#FFFFFF" d="M40.6,17l-0.9,1.8c4.9,2.4,8.3,7.4,8.2,13.2c0.1,6-3.4,11-8.5,13.4
	l0.8,1.7c5.8-2.6,9.7-8.3,9.7-15.1C49.9,25.4,46.1,19.7,40.6,17L40.6,17z"/>
<path fill-rule="evenodd" clip-rule="evenodd" fill="#FFFFFF" d="M45.1,31.9c0-5.5-3.3-10.2-8.1-12.2l-0.8,1.8
	c4.1,1.7,6.9,5.8,6.9,10.4c0,4.9-3,9-7.3,10.6l0.8,1.8C41.6,42.4,45.1,37.6,45.1,31.9L45.1,31.9z"/>
</svg>
